<svg xmlns="http://www.w3.org/2000/svg" viewBox="412.875 41.875 551.25 551.25"><defs><linearGradient id="axg" x1="0" y1="1" x2="1" y2="0"><stop offset="0%" stop-color="#00C2E0"/><stop offset="48%" stop-color="#1f7bff"/><stop offset="100%" stop-color="#5aa0ff"/></linearGradient><clipPath id="sil"><path d="M 131.734 155.750 C 130.325 157.315, 130.120 168.807, 129.803 264.302 C 129.523 348.570, 129.184 371.268, 128.194 371.880 C 127.504 372.307, 126.233 376.896, 125.369 382.078 C 124.506 387.260, 123.170 392, 122.400 392.610 C 121.630 393.221, 121 394.155, 121 394.687 C 121 396.635, 112.394 404.944, 108.842 406.425 C 106.830 407.264, 105.018 408.445, 104.817 409.050 C 104.615 409.654, 101.537 410.400, 97.975 410.707 C 94.414 411.015, 90.885 411.755, 90.133 412.352 C 87.792 414.214, 69.831 414.432, 63.816 412.673 C 60.892 411.818, 55.817 410.851, 52.538 410.525 C 49.259 410.199, 46.309 409.500, 45.982 408.970 C 45.655 408.441, 42.056 407.162, 37.985 406.128 C 33.914 405.094, 30.414 403.742, 30.208 403.124 C 30.002 402.506, 29.393 402, 28.855 402 C 28.317 402, 25.432 400.844, 22.445 399.431 C 17.024 396.866, 13 396.842, 13 399.373 C 13 400.054, 11.899 402.104, 10.552 403.929 C 9.206 405.754, 7.831 408.494, 7.496 410.020 C 7.161 411.545, 6.012 413.584, 4.943 414.551 C 3.874 415.519, 3 417.140, 3 418.155 C 3 419.170, 2.550 420, 2 420 C 1.366 420, 1 427.457, 1 440.372 L 1 460.744 4.891 461.367 C 7.031 461.709, 9.039 462.658, 9.353 463.476 C 9.667 464.295, 11.741 465.255, 13.962 465.610 C 16.183 465.965, 18 466.589, 18 466.996 C 18 468.092, 29.070 471, 33.244 471 C 35.273 471, 37.583 471.726, 38.512 472.655 C 43.546 477.688, 114.359 477.683, 117.177 472.649 C 117.728 471.664, 119.362 471, 121.234 471 C 125.071 471, 136 468.024, 136 466.980 C 136 466.563, 137.575 465.927, 139.500 465.566 C 141.425 465.205, 143 464.486, 143 463.968 C 143 463.450, 144.653 462.336, 146.674 461.492 C 152.021 459.258, 165.927 449.713, 165.966 448.250 C 165.985 447.563, 166.495 447, 167.100 447 C 168.531 447, 175 440.531, 175 439.100 C 175 438.495, 175.563 437.994, 176.250 437.988 C 176.938 437.981, 178.517 436.406, 179.759 434.488 C 181.002 432.569, 182.464 431, 183.009 431 C 183.554 431, 184 430.357, 184 429.571 C 184 428.786, 184.563 427.528, 185.250 426.776 C 187.515 424.299, 190 418.880, 190 416.419 C 190 415.037, 190.588 414, 191.370 414 C 192.740 414, 193.058 413.049, 196.964 397.276 C 199.989 385.060, 200.184 158.381, 197.171 155.655 C 194.308 153.064, 134.074 153.152, 131.734 155.750 M 263 156 C 261.017 157.983, 261 159.333, 261 312.875 C 261 471.163, 261.037 473.282, 263.862 474.686 C 265.684 475.592, 403.014 475.884, 429.071 475.038 C 442.416 474.605, 445.954 474.189, 447.242 472.901 C 448.242 471.901, 451.521 471.053, 455.998 470.637 C 459.935 470.271, 464.940 469.110, 467.121 468.056 C 469.301 467.002, 472.523 465.825, 474.279 465.439 C 476.035 465.053, 477.928 464.171, 478.486 463.479 C 479.044 462.787, 481.141 461.701, 483.147 461.067 C 485.153 460.432, 487.810 459.032, 489.050 457.956 C 490.291 456.880, 491.864 456, 492.546 456 C 493.228 456, 494.008 455.422, 494.279 454.717 C 494.549 454.011, 496.617 452.548, 498.874 451.467 C 501.131 450.385, 502.982 449.162, 502.989 448.749 C 502.995 448.336, 504.727 446.311, 506.838 444.249 C 508.949 442.187, 511.934 438.588, 513.471 436.250 C 515.008 433.913, 516.603 432, 517.016 432 C 517.429 432, 518.038 431.212, 518.369 430.250 C 518.701 429.288, 519.826 427.116, 520.869 425.423 C 521.912 423.731, 523.083 420.469, 523.471 418.173 C 523.909 415.579, 524.710 414, 525.588 414 C 526.365 414, 527 413.720, 527 413.378 C 527 413.036, 527.709 407.979, 528.576 402.140 C 531.024 385.654, 529.140 354.246, 525.536 351.459 C 524.795 350.887, 523.695 348.583, 523.091 346.340 C 522.487 344.096, 521.095 341.119, 519.997 339.723 C 518.898 338.327, 518 336.693, 518 336.092 C 518 335.492, 517.325 335, 516.500 335 C 515.675 335, 515 334.361, 515 333.580 C 515 331.731, 503.269 320, 501.420 320 C 500.639 320, 500 319.325, 500 318.500 C 500 317.675, 499.570 317, 499.044 317 C 498.519 317, 496.381 315.841, 494.294 314.425 C 492.207 313.009, 489.262 311.603, 487.750 311.300 C 486.237 310.998, 485 310.131, 485 309.375 C 485 308.619, 484.550 308, 484 308 C 482.047 308, 483.041 305.445, 485.750 303.503 C 489.844 300.568, 500 289.702, 500 288.257 C 500 287.565, 500.563 286.990, 501.250 286.978 C 502.838 286.950, 509 277.374, 509 274.934 C 509 273.925, 509.611 272.740, 510.359 272.300 C 511.801 271.451, 513.436 266.867, 514.442 260.850 C 514.778 258.843, 515.716 256.651, 516.526 255.978 C 518.678 254.193, 518.686 223.829, 516.536 221.679 C 515.731 220.874, 514.591 217.130, 514.002 213.358 C 513.413 209.586, 512.047 205.281, 510.966 203.790 C 509.885 202.300, 509 200.149, 509 199.009 C 509 197.870, 508.381 196.700, 507.625 196.410 C 506.869 196.120, 505.451 194.109, 504.473 191.941 C 503.496 189.773, 502.202 187.988, 501.598 187.972 C 500.994 187.957, 499.375 186.418, 498 184.552 C 496.625 182.686, 494.150 180.371, 492.500 179.408 C 490.850 178.444, 489.140 177.059, 488.700 176.328 C 488.260 175.598, 487.248 175, 486.450 175 C 485.653 175, 485 174.525, 485 173.944 C 485 173.363, 482.863 171.951, 480.250 170.806 C 477.637 169.660, 475.140 168.111, 474.700 167.362 C 474.260 166.613, 473.315 166, 472.599 166 C 471.883 166, 469.281 164.928, 466.816 163.617 C 464.350 162.306, 460.008 160.914, 457.167 160.523 C 453.898 160.073, 452 159.325, 452 158.486 C 452 157.577, 449.875 156.961, 445.250 156.530 C 441.538 156.185, 434.675 155.475, 430 154.954 C 425.325 154.432, 386.288 154.004, 343.250 154.003 C 266.331 154, 264.966 154.034, 263 156 M 1137.812 156.727 C 1128.309 157.109, 1126.261 158.343, 1119.175 167.957 C 1117.738 169.906, 1114.412 174.036, 1111.782 177.136 C 1109.152 180.235, 1107 183.273, 1107 183.886 C 1107 184.499, 1106.422 185, 1105.716 185 C 1105.009 185, 1103.651 186.321, 1102.697 187.936 C 1101.743 189.551, 1098.946 193.037, 1096.481 195.684 C 1094.017 198.330, 1092 201.059, 1092 201.748 C 1092 202.437, 1091.413 203, 1090.695 203 C 1089.978 203, 1087.840 205.469, 1085.945 208.487 C 1084.050 211.505, 1082.012 213.980, 1081.416 213.987 C 1080.820 213.994, 1078.570 216.561, 1076.416 219.692 C 1072.501 225.382, 1070.040 228.542, 1066.750 232.105 C 1065.787 233.147, 1064.982 234.338, 1064.959 234.750 C 1064.937 235.162, 1063.587 237.058, 1061.959 238.962 C 1060.332 240.866, 1059 242.779, 1059 243.212 C 1059 243.924, 1058.224 244.886, 1053.454 250.084 C 1052.654 250.955, 1052 251.985, 1052 252.373 C 1052 252.762, 1050.262 254.783, 1048.137 256.866 C 1046.012 258.948, 1043.486 261.856, 1042.522 263.326 C 1039.867 267.377, 1038 266.769, 1038 261.853 C 1038 258.664, 1037.241 256.758, 1034.714 253.603 C 1031.270 249.303, 1028.269 245.057, 1026.377 241.807 C 1025.760 240.746, 1024.298 238.777, 1023.127 237.432 C 1021.957 236.086, 1021 234.702, 1021 234.357 C 1021 234.012, 1019.987 232.708, 1018.750 231.459 C 1015.474 228.153, 1014 226.205, 1014 225.182 C 1014 224.686, 1012.863 223.430, 1011.473 222.390 C 1010.083 221.351, 1007.880 218.925, 1006.577 217 C 1005.275 215.075, 1001.687 210.841, 998.604 207.591 C 995.522 204.341, 993 201.481, 993 201.235 C 993 200.989, 991.650 199.083, 990 197 C 988.350 194.917, 987 192.978, 987 192.692 C 987 192.406, 985.538 190.603, 983.750 188.687 C 979.444 184.069, 974.653 178.068, 972.910 175.106 C 972.134 173.789, 970.150 171.264, 968.500 169.495 C 966.850 167.725, 963.553 164.175, 961.173 161.605 L 956.847 156.932 918.386 157.216 C 885.512 157.459, 879.784 157.718, 878.953 159 C 877.612 161.068, 878.706 164.988, 881.319 167.472 C 884.082 170.098, 890.730 178.313, 893.844 182.947 C 895.157 184.901, 896.990 187.222, 897.918 188.105 C 898.846 188.988, 901.091 192.026, 902.907 194.855 C 904.723 197.685, 906.600 200, 907.079 200 C 907.557 200, 908.610 201.238, 909.419 202.750 C 910.227 204.263, 912.489 207.213, 914.444 209.306 C 916.400 211.399, 918 213.443, 918 213.847 C 918 214.252, 919.462 216.169, 921.250 218.107 C 923.038 220.045, 926.750 224.238, 929.500 227.424 C 932.250 230.611, 935.288 234.069, 936.250 235.109 C 937.212 236.149, 938.018 237.337, 938.041 237.750 C 938.063 238.162, 939.413 240.058, 941.041 241.962 C 942.668 243.866, 944 245.904, 944 246.490 C 944 247.076, 944.788 248.315, 945.750 249.243 C 949.445 252.806, 951 254.703, 951 255.650 C 951 256.190, 952.462 258.025, 954.250 259.727 C 957.381 262.708, 961.160 266.990, 968.188 275.520 C 970.009 277.732, 972.400 280.478, 973.500 281.622 C 976.625 284.875, 980.042 289.108, 990.623 302.835 C 996.062 309.892, 996.404 310.147, 999.638 309.540 C 1003.561 308.804, 1004.409 311.103, 1001 313.232 C 999.900 313.919, 999 315.025, 999 315.691 C 999 316.356, 998.438 317.260, 997.750 317.700 C 996.254 318.657, 990.297 325.541, 987.500 329.544 C 984.903 333.261, 980.685 338.139, 974.625 344.435 C 971.944 347.221, 968.621 351.188, 967.242 353.250 C 965.863 355.313, 964.373 357, 963.931 357 C 963.489 357, 962.116 358.800, 960.880 361 C 959.643 363.200, 958.265 365, 957.816 365 C 957.367 365, 957 365.689, 957 366.531 C 957 367.374, 956.334 368.318, 955.520 368.631 C 954.706 368.943, 953.066 370.775, 951.875 372.702 C 950.684 374.629, 948.202 377.846, 946.360 379.853 C 944.517 381.859, 943.007 383.981, 943.005 384.570 C 943.002 385.158, 941.987 386.559, 940.750 387.683 C 939.513 388.808, 937.375 391.203, 936 393.008 C 934.625 394.812, 932.825 397.026, 932 397.927 C 931.175 398.828, 929.320 401.126, 927.878 403.033 C 926.436 404.940, 922.734 408.975, 919.651 412 C 916.568 415.025, 914.036 418.063, 914.023 418.750 C 914.010 419.438, 913.587 420, 913.082 420 C 912.576 420, 911.124 421.688, 909.855 423.750 C 908.585 425.813, 906.350 428.625, 904.888 430 C 903.426 431.375, 901.942 433.450, 901.591 434.612 C 901.240 435.774, 899.163 438.605, 896.976 440.904 C 894.789 443.203, 893 445.351, 893 445.677 C 893 446.004, 891.987 447.238, 890.750 448.421 C 889.513 449.603, 886.954 452.805, 885.065 455.535 C 883.176 458.266, 880.476 461.625, 879.065 463 C 877.654 464.375, 875.935 466.400, 875.244 467.500 C 870.318 475.341, 870.185 475.313, 911.531 475.184 C 948.221 475.070, 951 474.876, 951 472.433 C 951 471.645, 951.675 471, 952.500 471 C 953.325 471, 954 470.631, 954 470.180 C 954 469.729, 955.237 467.954, 956.750 466.236 C 958.263 464.518, 960.850 461.458, 962.500 459.437 C 964.150 457.416, 966.962 454.226, 968.750 452.348 C 970.538 450.470, 972 448.498, 972 447.967 C 972 447.435, 972.450 447, 973 447 C 973.550 447, 974 446.329, 974 445.508 C 974 444.688, 974.900 443.455, 976 442.768 C 977.100 442.081, 978.012 441.065, 978.027 440.509 C 978.064 439.148, 984.773 432, 986.013 432 C 986.556 432, 987.018 431.438, 987.041 430.750 C 987.063 430.063, 988.413 427.942, 990.041 426.038 C 991.668 424.134, 993 421.996, 993 421.288 C 993 420.579, 993.578 420, 994.284 420 C 994.991 420, 996.313 418.741, 997.222 417.202 C 998.131 415.662, 1000.473 412.850, 1002.427 410.952 C 1004.380 409.053, 1005.983 407.076, 1005.989 406.558 C 1005.995 406.040, 1007.800 403.938, 1010 401.886 C 1012.200 399.835, 1014 397.877, 1014 397.536 C 1014 397.195, 1014.457 396.372, 1015.016 395.708 C 1018.420 391.659, 1020.853 388.614, 1023.500 385.088 C 1025.150 382.891, 1027.063 381.072, 1027.750 381.046 C 1028.438 381.021, 1029 380.492, 1029 379.871 C 1029 379.250, 1030.463 377.042, 1032.250 374.963 C 1038.865 367.270, 1040.952 364.469, 1040.976 363.250 C 1040.989 362.563, 1041.469 362, 1042.042 362 C 1043.377 362, 1046.040 359.375, 1048.890 355.250 C 1050.943 352.279, 1055 350.729, 1055 352.915 C 1055 354.302, 1049.737 360.372, 1045.572 363.789 C 1042.820 366.047, 1045.081 376, 1048.346 376 C 1049.005 376, 1050.378 377.546, 1051.396 379.436 C 1052.413 381.326, 1054.444 384.138, 1055.909 385.686 C 1057.373 387.234, 1059.414 389.850, 1060.443 391.500 C 1061.473 393.150, 1062.919 394.860, 1063.657 395.300 C 1064.396 395.740, 1065 396.752, 1065 397.550 C 1065 398.347, 1065.413 399, 1065.918 399 C 1066.424 399, 1067.848 400.688, 1069.083 402.750 C 1070.318 404.813, 1072.605 407.712, 1074.165 409.194 C 1075.724 410.675, 1077 412.363, 1077 412.944 C 1077 413.525, 1077.450 414, 1078 414 C 1078.550 414, 1079 414.645, 1079 415.433 C 1079 416.221, 1079.787 417.140, 1080.750 417.475 C 1081.713 417.811, 1084.054 420.541, 1085.953 423.543 C 1087.852 426.544, 1089.989 429, 1090.703 429 C 1091.416 429, 1092 429.594, 1092 430.320 C 1092 431.046, 1093.237 433.079, 1094.750 434.838 C 1096.263 436.598, 1098.625 439.434, 1100 441.141 C 1101.375 442.848, 1104.397 446.310, 1106.716 448.834 C 1109.035 451.358, 1111.453 454.678, 1112.088 456.212 C 1112.723 457.745, 1113.863 459, 1114.621 459 C 1115.380 459, 1116 459.469, 1116 460.042 C 1116 461.263, 1116.721 462.156, 1123.861 469.777 L 1129.222 475.500 1166.575 475.500 C 1199.848 475.500, 1204.108 475.321, 1205.567 473.862 C 1207.697 471.732, 1206.848 469.179, 1202.465 464.532 C 1200.559 462.511, 1199 460.475, 1199 460.008 C 1199 459.541, 1197.200 457.340, 1195 455.118 C 1192.800 452.896, 1191 450.788, 1191 450.433 C 1191 449.545, 1185.001 441.970, 1182.250 439.385 C 1181.013 438.222, 1180 436.910, 1180 436.469 C 1180 436.028, 1179.346 434.955, 1178.546 434.084 C 1173.756 428.864, 1173 427.918, 1173 427.140 C 1173 426.667, 1171.537 424.683, 1169.750 422.731 C 1166.031 418.671, 1161.658 413.133, 1161.167 411.863 C 1160.983 411.388, 1160.272 411, 1159.586 411 C 1158.899 411, 1157.717 409.840, 1156.959 408.423 C 1156.200 407.005, 1154.774 405.414, 1153.790 404.887 C 1152.805 404.361, 1152 403.270, 1152 402.465 C 1152 401.659, 1151.662 400.999, 1151.250 400.998 C 1150.838 400.997, 1149.221 398.972, 1147.658 396.498 C 1146.095 394.024, 1144.408 392, 1143.908 392 C 1143.409 392, 1143 391.502, 1143 390.894 C 1143 390.286, 1141.875 388.903, 1140.500 387.821 C 1139.125 386.740, 1138 385.228, 1138 384.463 C 1138 383.697, 1137.100 382.589, 1136 382 C 1134.900 381.411, 1134 380.319, 1134 379.572 C 1134 378.825, 1133.325 377.955, 1132.500 377.638 C 1131.675 377.322, 1131 376.456, 1131 375.715 C 1131 374.974, 1129.537 372.966, 1127.750 371.253 C 1123.394 367.077, 1119 361.484, 1119 360.113 C 1119 359.501, 1118.325 359, 1117.500 359 C 1116.675 359, 1116 358.502, 1116 357.894 C 1116 356.858, 1111.365 350.515, 1108 346.944 C 1103.381 342.042, 1096.378 333.550, 1095.597 331.904 C 1095.101 330.857, 1094.088 330, 1093.347 330 C 1092.606 330, 1091.985 329.438, 1091.967 328.750 C 1091.901 326.289, 1088.029 322.879, 1084.684 322.336 C 1081.032 321.743, 1078.641 323.487, 1075.207 329.250 C 1074.306 330.762, 1072.991 332, 1072.284 332 C 1071.578 332, 1071 332.675, 1071 333.500 C 1071 334.325, 1070.325 335, 1069.500 335 C 1068.675 335, 1068 334.325, 1068 333.500 C 1068 332.675, 1068.675 332, 1069.500 332 C 1070.387 332, 1071.002 331.081, 1071.005 329.750 C 1071.009 327.549, 1072.794 325.273, 1083.432 313.902 C 1086.313 310.823, 1088.954 307.561, 1089.303 306.652 C 1089.652 305.744, 1090.401 305, 1090.969 305 C 1091.536 305, 1092 304.506, 1092 303.901 C 1092 303.297, 1093.237 301.520, 1094.750 299.952 C 1098.908 295.642, 1100.587 293.518, 1101.295 291.674 C 1101.648 290.753, 1102.401 290, 1102.969 290 C 1103.536 290, 1104 289.492, 1104 288.871 C 1104 288.250, 1105.463 286.060, 1107.250 284.003 C 1109.037 281.947, 1111.625 278.771, 1113 276.947 C 1114.375 275.123, 1116.225 272.926, 1117.110 272.065 C 1117.996 271.204, 1120.324 268.372, 1122.285 265.772 C 1124.245 263.172, 1127.008 259.970, 1128.425 258.657 C 1129.841 257.345, 1131 255.970, 1131 255.602 C 1131 255.234, 1132.237 253.689, 1133.750 252.168 C 1135.263 250.648, 1138.043 247.401, 1139.928 244.952 C 1141.813 242.503, 1143.952 239.825, 1144.681 239 C 1145.410 238.175, 1147.583 235.475, 1149.510 233 C 1151.437 230.525, 1153.385 228.038, 1153.837 227.474 C 1154.290 226.910, 1155.481 225.196, 1156.483 223.666 C 1157.486 222.136, 1159.595 219.504, 1161.169 217.819 C 1162.744 216.133, 1164.797 213.459, 1165.732 211.877 C 1166.666 210.295, 1167.926 209, 1168.531 209 C 1169.137 209, 1170.586 207.313, 1171.753 205.250 C 1172.920 203.188, 1176.378 198.841, 1179.437 195.591 C 1182.497 192.341, 1185.008 189.416, 1185.017 189.091 C 1185.027 188.766, 1186.156 187.436, 1187.527 186.136 C 1188.898 184.835, 1190.289 182.698, 1190.618 181.386 C 1190.947 180.074, 1191.731 178.999, 1192.358 178.998 C 1192.986 178.997, 1195.056 176.713, 1196.959 173.922 C 1198.861 171.131, 1201.224 168.416, 1202.209 167.888 C 1204.322 166.757, 1204.653 161.205, 1202.750 158.807 C 1201.462 157.184, 1159.719 155.847, 1137.812 156.727 M 760.854 162.250 C 754.878 168.731, 750.868 173.790, 749.756 176.250 C 749.071 177.762, 748.059 179.018, 747.506 179.040 C 746.953 179.063, 744.925 181.534, 743 184.533 C 741.075 187.531, 738.938 189.988, 738.250 189.992 C 737.563 189.996, 737 190.498, 737 191.106 C 737 191.714, 735.650 193.917, 734 196 C 732.350 198.083, 731 200.511, 731 201.394 C 731 202.277, 730.422 203, 729.716 203 C 729.009 203, 727.589 204.463, 726.559 206.250 C 725.530 208.037, 723.884 210.280, 722.903 211.234 C 721.921 212.187, 719.720 215, 718.011 217.484 C 716.302 219.968, 714.506 222, 714.019 222 C 713.533 222, 712.877 222.787, 712.562 223.750 C 712.246 224.713, 710.223 227.397, 708.065 229.716 C 703.538 234.582, 698 242.383, 698 243.895 C 698 244.464, 697.062 245.432, 695.915 246.045 C 694.769 246.659, 693.188 248.700, 692.402 250.580 C 691.616 252.461, 690.529 254, 689.987 254 C 689.444 254, 689 254.675, 689 255.500 C 689 256.325, 688.540 257, 687.979 257 C 687.417 257, 686.418 258.238, 685.758 259.750 C 685.099 261.262, 683.533 263.491, 682.280 264.702 C 681.026 265.913, 679.992 267.263, 679.983 267.702 C 679.973 268.141, 678.844 269.564, 677.473 270.864 C 676.102 272.165, 674.711 274.302, 674.382 275.614 C 674.053 276.926, 673.157 278, 672.392 278 C 671.626 278, 670.982 278.563, 670.959 279.250 C 670.937 279.938, 669.587 282.058, 667.959 283.962 C 666.332 285.866, 665 288.004, 665 288.712 C 665 289.421, 664.374 290, 663.608 290 C 662.843 290, 661.954 291.048, 661.633 292.328 C 661.311 293.608, 659.912 295.881, 658.524 297.379 C 657.136 298.877, 656 300.507, 656 301.002 C 656 301.496, 655.372 302.260, 654.603 302.700 C 653.835 303.140, 652.216 305.188, 651.005 307.250 C 649.793 309.313, 648.397 311, 647.901 311 C 647.406 311, 647 311.653, 647 312.450 C 647 313.248, 646.390 314.260, 645.644 314.700 C 644.898 315.140, 643.497 317.188, 642.530 319.250 C 641.563 321.313, 640.148 323, 639.386 323 C 638.624 323, 638 323.689, 638 324.531 C 638 325.374, 637.385 326.299, 636.634 326.587 C 635.882 326.875, 634.420 328.881, 633.384 331.044 C 632.348 333.207, 631.050 334.992, 630.500 335.011 C 629.950 335.030, 627.925 337.315, 626 340.089 C 624.075 342.863, 621.263 346.419, 619.750 347.990 C 618.237 349.561, 617 351.331, 617 351.923 C 617 352.515, 616.212 353.853, 615.250 354.895 C 611.108 359.380, 608.744 362.544, 607.925 364.697 C 607.444 365.964, 606.588 367, 606.025 367 C 605.461 367, 605 367.605, 605 368.344 C 605 369.084, 603.876 370.996, 602.501 372.594 C 601.127 374.193, 600.002 375.845, 600.001 376.268 C 600.001 376.690, 598.538 378.496, 596.750 380.281 C 594.962 382.066, 592.653 385.096, 591.617 387.013 C 590.581 388.931, 589.225 390.950, 588.603 391.500 C 587.981 392.050, 586.693 393.625, 585.741 395 C 580.715 402.255, 573.814 411.687, 568.250 418.903 C 564.813 423.362, 562 427.458, 562 428.005 C 562 428.552, 561.647 429, 561.216 429 C 560.784 429, 559.589 430.462, 558.559 432.250 C 557.530 434.038, 555.970 436.266, 555.094 437.202 C 553.040 439.396, 551.971 440.755, 549.095 444.834 C 547.802 446.667, 545.208 449.817, 543.331 451.834 C 541.454 453.850, 538.138 458.200, 535.963 461.500 C 533.789 464.800, 531.557 468.044, 531.005 468.708 C 529.477 470.545, 529.783 471.734, 532.223 473.443 C 534.132 474.781, 539.406 475, 569.661 475 L 604.877 475 607.810 472.250 C 609.423 470.738, 612.273 467.475, 614.144 465 C 618.593 459.112, 621.048 456.123, 623.523 453.579 C 624.636 452.436, 627.111 449.149, 629.023 446.276 C 630.936 443.402, 633.063 441.040, 633.750 441.026 C 634.438 441.012, 635 440.325, 635 439.500 C 635 438.675, 635.348 438, 635.774 438 C 636.199 438, 638.562 435.310, 641.024 432.021 C 643.486 428.733, 645.837 426.033, 646.250 426.021 C 646.663 426.010, 647 425.373, 647 424.607 C 647 423.841, 647.675 422.955, 648.500 422.638 C 649.325 422.322, 650 421.538, 650 420.896 C 650 420.254, 651.013 418.722, 652.250 417.491 C 655.843 413.917, 659 409.907, 659 408.915 C 659 408.412, 659.407 408, 659.905 408 C 660.403 408, 661.997 405.975, 663.447 403.500 C 664.898 401.025, 666.515 399, 667.042 399 C 667.569 399, 668 398.347, 668 397.550 C 668 396.752, 668.628 395.740, 669.397 395.300 C 670.165 394.860, 671.784 392.813, 672.995 390.750 C 674.207 388.688, 675.491 386.999, 675.849 386.998 C 676.207 386.997, 678.075 384.659, 680 381.803 C 681.925 378.947, 684.737 375.412, 686.250 373.947 C 687.763 372.482, 689 370.770, 689 370.142 C 689 369.514, 689.460 369, 690.021 369 C 690.583 369, 691.596 367.769, 692.271 366.264 C 692.947 364.759, 694.175 362.781, 695 361.869 C 698.760 357.711, 701 354.760, 701 353.965 C 701 353.489, 701.598 352.740, 702.328 352.300 C 703.059 351.860, 704.521 349.925, 705.578 348 C 706.635 346.075, 708.288 343.912, 709.250 343.193 C 710.212 342.475, 711 341.237, 711 340.443 C 711 339.649, 711.425 339, 711.943 339 C 712.462 339, 713.684 337.650, 714.659 336 C 715.634 334.350, 717.023 333, 717.747 333 C 718.471 333, 719.353 332.212, 719.708 331.250 C 720.064 330.288, 720.655 329.275, 721.023 329 C 721.391 328.725, 723.846 325.403, 726.479 321.617 C 729.112 317.831, 732.127 313.781, 733.180 312.617 C 736.571 308.864, 737.530 307.553, 738.989 304.673 C 739.776 303.117, 741.226 301.414, 742.210 300.887 C 743.195 300.361, 744 299.495, 744 298.965 C 744 298.434, 744.788 297.163, 745.750 296.140 C 746.712 295.118, 748.850 292.572, 750.500 290.484 C 752.150 288.396, 754.513 285.455, 755.750 283.949 C 756.987 282.443, 758 280.489, 758 279.606 C 758 278.723, 758.650 278, 759.443 278 C 760.237 278, 761.684 276.650, 762.659 275 C 766.289 268.855, 766.699 270.824, 767.403 297.750 C 768.358 334.310, 768.370 345.557, 767.505 389.500 C 766.663 432.249, 767.518 470.963, 769.359 473.469 C 770.859 475.509, 837.112 477.081, 840.699 475.161 C 844.208 473.283, 845.495 465.174, 844.246 452.815 C 843.346 443.909, 843.293 382.067, 844.125 311.500 C 844.229 302.700, 843.906 288.075, 843.407 279 C 842.897 269.723, 842.858 253.745, 843.318 242.500 C 844.878 204.348, 843.693 162.677, 841 160.977 C 840.125 160.425, 823.553 160.024, 801.214 160.015 L 762.929 160 760.854 162.250 M 329.630 214.250 C 328.776 217.438, 328.989 277.116, 329.863 279.335 C 330.549 281.077, 332.703 281.165, 372.043 281.067 C 414.535 280.960, 425.564 280.070, 428.504 276.507 C 429.056 275.838, 430.518 274.970, 431.754 274.578 C 432.989 274.186, 434 273.543, 434 273.148 C 434 272.754, 435.350 271.634, 437 270.659 C 438.650 269.684, 440 268.453, 440 267.922 C 440 267.391, 441.074 265.279, 442.387 263.229 C 443.700 261.178, 445.054 257.268, 445.396 254.540 C 445.739 251.813, 446.465 249.135, 447.010 248.590 C 448.466 247.134, 448.216 244.073, 446.500 242.357 C 445.675 241.532, 445 239.287, 445 237.369 C 445 233.655, 439.492 224, 437.373 224 C 436.736 224, 435.996 223.432, 435.730 222.739 C 434.899 220.573, 426.179 216.850, 419.190 215.677 C 415.511 215.059, 411.905 213.979, 411.179 213.277 C 410.152 212.285, 400.986 212, 370.045 212 L 330.233 212 329.630 214.250 M 1006.035 302.934 C 1004.682 305.462, 1004.722 307, 1006.140 307 C 1007.507 307, 1009.924 304.001, 1009.968 302.250 C 1010.018 300.293, 1007.185 300.786, 1006.035 302.934 M 1063.750 338.217 C 1062.787 339.421, 1062 340.990, 1062 341.703 C 1062 342.417, 1061.358 343, 1060.573 343 C 1058.904 343, 1055 347.648, 1055 349.635 C 1055 351.972, 1057.523 351.136, 1059.812 348.040 C 1061.015 346.413, 1062 344.613, 1062 344.040 C 1062 343.468, 1062.645 343, 1063.433 343 C 1064.221 343, 1065.151 342.100, 1065.500 341 C 1065.849 339.900, 1066.554 339, 1067.067 339 C 1067.580 339, 1068 338.325, 1068 337.500 C 1068 335.313, 1065.769 335.690, 1063.750 338.217 M 329.647 346.651 C 328.746 357.304, 328.833 414.978, 329.750 415.099 C 330.163 415.153, 349.400 415.316, 372.500 415.461 C 415.404 415.731, 428.635 415.116, 432.382 412.680 C 433.547 411.922, 436.188 410.988, 438.250 410.606 C 440.313 410.223, 442 409.509, 442 409.019 C 442 408.530, 443.586 407.556, 445.525 406.855 C 448.754 405.687, 452.018 401.882, 454.194 396.750 C 454.602 395.788, 455.363 395, 455.885 395 C 459.953 395, 459.695 366.088, 455.607 363.800 C 454.723 363.305, 454 362.113, 454 361.150 C 454 360.188, 453.498 358.898, 452.884 358.284 C 452.270 357.670, 451.258 356.162, 450.634 354.932 C 450.010 353.703, 448.639 352.202, 447.588 351.598 C 446.536 350.994, 444.881 349.825, 443.909 349 C 442.938 348.175, 441.396 346.882, 440.483 346.127 C 439.569 345.372, 435.605 343.927, 431.674 342.916 C 427.742 341.905, 424.370 340.610, 424.180 340.039 C 423.947 339.340, 408.517 339, 377.063 339 L 330.293 339 329.647 346.651"/></clipPath></defs><rect x="412.875" y="41.875" width="551.25" height="551.25" rx="121.275" fill="#0a1f44"/><g clip-path="url(#sil)"><rect x="532" y="160" width="313" height="315" fill="#ffffff"/><line x1="588.3" y1="481.0" x2="726.1" y2="154.0" stroke="url(#axg)" stroke-width="93.9"/></g></svg>